# xmcd
#
# Track frame offsets:
#	150
#	12850
#	28352
#	46412
#	61172
#	84840
#	103280
#	120205
#	136412
#	148252
#	163977
#	178797
#
# Disc length: 2912 seconds
#
# Revision: 1
# Processed by: cddbd v1.4PL0 Copyright (c) Steve Scherf et al.
# Submitted via: EasyCDDAExtractor 5.0.7
#
DISCID=a50b5e0c
DTITLE=Jimi Hendrix - Superstars Best Collection
DYEAR=1900
DGENRE=R&B
TTITLE0=Purple haze
TTITLE1=Hey Joe
TTITLE2=All alone the watch tower
TTITLE3=Foxy lady
TTITLE4=Voodoo chile
TTITLE5=Johnny be good
TTITLE6=Gypsy eyes
TTITLE7=Stone free
TTITLE8=Let me light your fire
TTITLE9=Highway chile
TTITLE10=Little wing
TTITLE11=Gloria
EXTD=
EXTT0=
EXTT1=
EXTT2=
EXTT3=
EXTT4=
EXTT5=
EXTT6=
EXTT7=
EXTT8=
EXTT9=
EXTT10=
EXTT11=
PLAYORDER=
